<?xml version="1.0" encoding="UTF-8"?>
<svg version="1.1" xmlns="http://www.w3.org/2000/svg" width="1277" height="653">
<path d="M0 0 C31.80375 -0.0928125 31.80375 -0.0928125 64.25 -0.1875 C70.92766602 -0.21481201 77.60533203 -0.24212402 84.48535156 -0.27026367 C92.68310547 -0.28381348 92.68310547 -0.28381348 96.52923584 -0.28633118 C99.19721578 -0.29091733 101.86475924 -0.3002838 104.53265381 -0.31672668 C108.58988264 -0.34139614 112.64679787 -0.34171346 116.70410156 -0.34057617 C117.87881138 -0.3513705 119.05352119 -0.36216482 120.26382828 -0.37328625 C132.951583 -0.3259683 144.37220834 2.19208614 154.03515625 10.81640625 C160.51882415 17.63045213 163.19553193 24.69631931 163.4375 34.0625 C163.06637304 45.8489803 158.52695234 53.21855561 151 62 C151.6290625 62.32871094 152.258125 62.65742188 152.90625 62.99609375 C160.66091718 67.30553982 167.53677059 72.62188506 171 81.0625 C173.43244482 90.12454932 173.4111153 101.3136325 169.3203125 109.82421875 C163.55269895 119.32883634 155.86060768 123.89677674 145.53125 127.421875 C137.34384784 129.29183722 129.02531815 129.13811307 120.67749023 129.11352539 C119.36919754 129.11367142 118.06090485 129.11381744 116.71296692 129.1139679 C113.15161598 129.11425299 109.59029922 129.10840296 106.02895617 129.10139394 C102.29738717 129.09511233 98.56581725 129.09455281 94.83424377 129.09336853 C87.77967532 129.09026933 80.72512249 129.08207507 73.6705609 129.07201904 C64.12946413 129.05871585 54.58836304 129.05334659 45.04725933 129.04751682 C30.03149453 129.03813414 15.0157627 129.01820583 0 129 C0 86.43 0 43.86 0 0 Z M51 31 C51 36.28 51 41.56 51 47 C58.75391441 47.09040438 66.50754036 47.16377491 74.26183701 47.20724869 C77.86258286 47.22811513 81.46294916 47.25641421 85.06347656 47.30175781 C88.53887913 47.34525125 92.01391688 47.36914421 95.48957062 47.37950897 C97.45945784 47.39048615 99.42919847 47.421707 101.39886475 47.45318604 C102.59980774 47.45348816 103.80075073 47.45379028 105.03808594 47.45410156 C106.09509705 47.46298401 107.15210815 47.47186646 108.2411499 47.48101807 C111.7205453 46.87436965 112.88928335 45.78738872 115 43 C115.66666667 39.5 115.66666667 39.5 115 36 C113.13291495 33.63502561 111.67938569 32.33969285 109 31 C107.1514292 30.90898388 105.29953621 30.88246854 103.44873047 30.88647461 C102.28767792 30.88655014 101.12662537 30.88662567 99.9303894 30.88670349 C98.04285446 30.89444542 98.04285446 30.89444542 96.1171875 30.90234375 C94.83264679 30.9037587 93.54810608 30.90517365 92.22463989 30.90663147 C88.80843158 30.91045089 85.39226574 30.92027627 81.97607422 30.93133545 C78.49056574 30.94156193 75.0050504 30.94613174 71.51953125 30.95117188 C64.67966829 30.96189905 57.83984055 30.97949121 51 31 Z M51 81 C51 86.28 51 91.56 51 97 C59.92738326 97.0903722 68.85446268 97.16375652 77.78219986 97.20724869 C81.9277267 97.22812288 86.07292434 97.25643685 90.21826172 97.30175781 C94.21885157 97.34522249 98.21912481 97.36913838 102.21993256 97.37950897 C103.74619277 97.38689931 105.27243568 97.40133111 106.7985611 97.42292023 C108.93672614 97.45196424 111.07358346 97.45595585 113.21191406 97.45410156 C115.03725677 97.46742523 115.03725677 97.46742523 116.8994751 97.48101807 C120.60678261 96.90586323 121.74233766 95.93402517 124 93 C125.08024658 90.59889783 125.08024658 90.59889783 125 88 C123.37844371 84.51365399 122.23546708 83.15697806 119 81 C115.94498006 80.70824041 115.94498006 80.70824041 112.41723633 80.77294922 C111.75355545 80.77265717 111.08987457 80.77236511 110.40608215 80.77206421 C108.21459839 80.77345643 106.02345555 80.78901221 103.83203125 80.8046875 C102.31174404 80.80841802 100.79145442 80.81126481 99.27116394 80.81326294 C95.27130486 80.82089634 91.27159121 80.84054226 87.27178955 80.8626709 C83.18967659 80.88313566 79.10754011 80.892266 75.02539062 80.90234375 C67.01685294 80.9237885 59.00846132 80.9589682 51 81 Z " fill="#03413C" transform="translate(709,267)"/>
<path d="M0 0 C16.85571982 -0.09371848 33.71135755 -0.16411328 50.56727886 -0.20724869 C58.39495781 -0.22781552 66.22247424 -0.25582259 74.05004883 -0.30175781 C80.87787789 -0.34180682 87.70558917 -0.36747547 94.53353244 -0.37635398 C98.14411789 -0.38153843 101.75436657 -0.39359844 105.36484337 -0.42292023 C109.40963631 -0.45549839 113.45385534 -0.45594795 117.4987793 -0.45410156 C119.26609154 -0.47567322 119.26609154 -0.47567322 121.06910706 -0.49768066 C135.51113397 -0.42678521 147.99568569 4.28180791 158.6875 14 C168.80896279 24.6060009 172.54016188 37.80294679 172.3125 52.1171875 C171.33545522 64.25696884 165.95022236 74.90799039 158 84 C155.93852526 85.67962126 153.90275558 87.26488505 151.75 88.8125 C151.19570313 89.21919922 150.64140625 89.62589844 150.0703125 90.04492188 C148.71789547 91.03591711 147.35955093 92.01881466 146 93 C152.55660855 101.84677147 159.17524177 110.61404678 166.16503906 119.12524414 C168.48809775 121.98011113 170.434389 124.67453793 172 128 C164.35149164 128.33111001 156.70484297 128.55785693 149.05078125 128.71411133 C146.45079511 128.77927267 143.85128151 128.86783367 141.25292969 128.98071289 C118.44413845 129.94637244 118.44413845 129.94637244 113.2019043 125.29663086 C110.49704726 122.16191139 108.77698578 118.72217606 107 115 C106.02216989 113.64469651 105.00990498 112.31237672 103.94140625 111.02734375 C103.15636719 110.00769531 102.37132812 108.98804688 101.5625 107.9375 C100.75941406 106.89464844 99.95632813 105.85179687 99.12890625 104.77734375 C97 102 97 102 95.97314453 99.86450195 C92.66237334 96.73602391 88.68386867 97.39644631 84.30078125 97.390625 C83.35059616 97.37408875 82.40041107 97.35755249 81.4214325 97.34051514 C78.38505674 97.29191041 75.34918223 97.27063648 72.3125 97.25 C70.2545319 97.22185076 68.19658728 97.19192482 66.13867188 97.16015625 C61.09221456 97.08280031 56.04735716 97.04239695 51 97 C51 107.23 51 117.46 51 128 C45.39 128 39.78 128 34 128 C33.27296875 126.59492188 32.5459375 125.18984375 31.796875 123.7421875 C26.15792365 112.87342605 20.45479524 102.04816076 14.53808594 91.32763672 C13.61477849 89.6499519 12.71185263 87.96092216 11.8274231 86.26242065 C10.47293583 83.8443122 9.10536928 81.6929191 7.5239563 79.43829346 C-2.0704912 64.86215809 -1.20285412 49.75581922 -0.68664551 33.02740479 C-0.58270755 29.29294478 -0.53833487 25.5577675 -0.48828125 21.82226562 C-0.3823389 14.54627281 -0.21263882 7.27374232 0 0 Z M51 38 C51 44.93 51 51.86 51 59 C59.11056873 59.11313996 67.22051998 59.20479425 75.33166695 59.25906086 C79.0983636 59.28511142 82.86449057 59.320424 86.63085938 59.37719727 C90.26838624 59.43168278 93.90536655 59.46145468 97.54327011 59.47438622 C98.92835973 59.48359678 100.31342076 59.50158359 101.69827652 59.52865028 C110.29236301 59.9989429 110.29236301 59.9989429 117.83544922 56.59448242 C121.18966613 52.57403768 121.44479367 50.24856534 121 45 C118.80858857 41.47808877 116.84024785 39.50200841 113 38 C110.08956103 37.71091572 110.08956103 37.71091572 106.85449219 37.77294922 C105.61350769 37.77310028 104.37252319 37.77325134 103.09393311 37.77340698 C101.7449121 37.78361939 100.39589273 37.79405136 99.046875 37.8046875 C97.6625387 37.80841951 96.27819975 37.81126559 94.89385986 37.81326294 C91.2573309 37.82088466 87.62096269 37.84052045 83.98449707 37.8626709 C80.27093683 37.88316091 76.55735052 37.89227139 72.84375 37.90234375 C65.56241836 37.92376787 58.28125222 37.95893793 51 38 Z " fill="#03413C" transform="translate(478,267)"/>
<path d="M0 0 C9.09278066 8.51948217 13.4981137 17.3573854 14.3515625 29.80859375 C14.78993437 76.76918015 -24.76404526 119.41179685 -54.6484375 151.80859375 C-54.6484375 148.4433437 -54.29616102 147.9910021 -52.296875 145.46484375 C-51.78253906 144.80581055 -51.26820313 144.14677734 -50.73828125 143.46777344 C-50.17238281 142.75524414 -49.60648438 142.04271484 -49.0234375 141.30859375 C-47.82170668 139.76265857 -46.62122874 138.21574882 -45.421875 136.66796875 C-44.79764648 135.86552734 -44.17341797 135.06308594 -43.53027344 134.23632812 C-20.62402088 104.68524154 7.44565524 66.19555813 4.3515625 26.80859375 C2.89851614 19.24854093 -0.3784109 13.21005216 -6.7109375 8.68359375 C-29.48404113 -5.41579942 -57.15376647 0.11300229 -81.6484375 5.80859375 C-126.32715969 16.48034878 -169.41107675 34.77298905 -209.6484375 56.80859375 C-210.76428223 57.41638672 -211.88012695 58.02417969 -213.02978516 58.65039062 C-232.45285886 69.22410356 -232.45285886 69.22410356 -251.47998047 80.48779297 C-254.12710532 82.1001489 -256.79598137 83.67388685 -259.46484375 85.25 C-273.54930763 93.61764538 -287.27213901 102.4318811 -300.8359375 111.62109375 C-301.60004944 112.13849121 -302.36416138 112.65588867 -303.15142822 113.18896484 C-314.07619313 120.59861612 -324.89094624 128.15846323 -335.6484375 135.80859375 C-336.55489014 136.45272217 -337.46134277 137.09685059 -338.39526367 137.76049805 C-349.32100013 145.55140406 -360.0502625 153.57826186 -370.6484375 161.80859375 C-371.28297852 162.30133789 -371.91751953 162.79408203 -372.57128906 163.30175781 C-383.17675733 171.55415515 -393.59121014 180.02002873 -403.8215332 188.73364258 C-407.13428796 191.5498995 -410.49525616 194.28901768 -413.8984375 196.99609375 C-419.62253461 201.64744645 -424.94854845 206.69718431 -430.28417969 211.78588867 C-433.89915941 215.23299939 -437.54828605 218.61914053 -441.2890625 221.9296875 C-447.40218077 227.40676897 -453.1891577 233.19898882 -458.98120117 239.01098633 C-460.83985858 240.87502619 -462.70383364 242.73362887 -464.56835938 244.59179688 C-469.9566273 249.97705465 -475.30067712 255.34938184 -480.24047852 261.15551758 C-482.42320325 263.71824155 -484.72908233 266.15793467 -487.0234375 268.62109375 C-491.26226576 273.21496916 -495.307115 277.92157409 -499.22265625 282.796875 C-500.99786174 285.00087409 -502.78947619 287.18176749 -504.60546875 289.3515625 C-526.95259999 316.18527051 -554.53416845 352.024262 -551.88037109 388.86767578 C-551.37961397 393.05822223 -549.9849154 396.33880763 -547.6484375 399.80859375 C-546.9884375 400.86046875 -546.3284375 401.91234375 -545.6484375 402.99609375 C-539.7999497 409.47636264 -530.077924 412.62199327 -521.6484375 413.80859375 C-520.57529297 413.97294922 -520.57529297 413.97294922 -519.48046875 414.140625 C-436.44773746 425.16266898 -336.19623448 363.70682274 -249.89746094 313.17089844 C-245.82287754 310.7027943 -241.73504158 308.256726 -237.6484375 305.80859375 C-237.3184375 306.46859375 -236.9884375 307.12859375 -236.6484375 307.80859375 C-238.17233042 308.82452236 -239.6962245 309.84044921 -241.22012329 310.85636902 C-242.58226359 311.76447287 -243.94438465 312.67260557 -245.30648804 313.58076477 C-249.07920614 316.09609662 -252.85227198 318.6109042 -256.62597656 321.12475586 C-265.87924037 327.28728953 -265.87924037 327.28728953 -275.109375 333.484375 C-336.61032144 374.92949374 -403.85122812 409.69981296 -476.6484375 425.80859375 C-477.88424561 426.09452393 -477.88424561 426.09452393 -479.14501953 426.38623047 C-497.13647016 430.46865135 -519.00380649 431.73776125 -536.6484375 425.80859375 C-537.69644531 425.45667969 -538.74445313 425.10476563 -539.82421875 424.7421875 C-551.24396181 420.43311882 -560.77664464 413.21656997 -565.96875 401.94140625 C-573.78095585 380.03445138 -565.97993408 355.87276627 -556.6484375 335.68359375 C-546.29040357 314.00045297 -532.07786314 294.15246646 -516.6484375 275.80859375 C-515.14708317 273.95552354 -513.64710346 272.10133885 -512.1484375 270.24609375 C-508.47515583 265.75368306 -504.66064923 261.41892694 -500.75390625 257.12890625 C-498.91926065 255.10705191 -497.12074964 253.06180853 -495.3359375 250.99609375 C-485.41034144 239.64594941 -474.90218133 228.90268789 -464.22900391 218.25878906 C-461.88457073 215.91975894 -459.54558879 213.57537178 -457.20703125 211.23046875 C-455.69302916 209.71712688 -454.1787172 208.20409494 -452.6640625 206.69140625 C-451.97741516 206.00273468 -451.29076782 205.31406311 -450.58331299 204.60452271 C-446.65092691 200.69087825 -442.61767377 196.95191804 -438.41151428 193.33355713 C-435.82550201 191.09680031 -433.33785668 188.76405273 -430.8359375 186.43359375 C-426.19152153 182.14304505 -421.41084951 178.07986961 -416.484375 174.11328125 C-413.94626937 172.05063342 -411.45025599 169.95030537 -408.96459961 167.82543945 C-401.68685641 161.60592005 -394.23062861 155.6518645 -386.6484375 149.80859375 C-385.86404297 149.20354004 -385.07964844 148.59848633 -384.27148438 147.97509766 C-378.09113574 143.2165138 -371.88272618 138.49628086 -365.6484375 133.80859375 C-364.93300781 133.27041016 -364.21757812 132.73222656 -363.48046875 132.17773438 C-348.23901038 120.78349132 -332.25489026 110.4240889 -316.3762207 99.94915771 C-314.8987674 98.97384438 -313.4228579 97.9961931 -311.94726562 97.01806641 C-290.78270921 82.99678046 -268.86261011 70.08515531 -246.6484375 57.80859375 C-245.70210449 57.28394531 -244.75577148 56.75929688 -243.78076172 56.21875 C-232.96546071 50.23200243 -222.11412643 44.35611045 -210.99365234 38.95458984 C-208.27337075 37.62531629 -205.56517203 36.27257802 -202.85546875 34.921875 C-49.44718964 -40.91426753 -49.44718964 -40.91426753 0 0 Z " fill="#04413A" transform="translate(744.6484375,101.19140625)"/>
<path d="M0 0 C1.06367294 0.00222061 2.12734589 0.00444122 3.22325134 0.00672913 C5.02500572 0.00684242 5.02500572 0.00684242 6.86315918 0.00695801 C8.17042465 0.01211929 9.47769012 0.01728058 10.8245697 0.02259827 C12.16835477 0.02446253 13.51214052 0.02588639 14.85592651 0.02688599 C18.39873622 0.0307105 21.94150515 0.0405402 25.48429871 0.05158997 C29.09706572 0.06180552 32.7098393 0.06638392 36.32261658 0.07142639 C43.41573225 0.08216254 50.50882019 0.09923816 57.60191345 0.12025452 C70.4670174 23.67844984 70.4670174 23.67844984 76.41441345 34.74525452 C77.27788391 36.35037903 77.27788391 36.35037903 78.15879822 37.9879303 C85.95783936 52.49214842 93.73213554 67.00969845 101.49571228 81.53292847 C102.77698523 83.92950417 104.05890622 86.32573291 105.34092712 88.72190857 C106.27940286 90.47653812 107.21702996 92.23162148 108.15464783 93.98670959 C111.1397447 99.56473267 114.14771339 105.12786209 117.21128845 110.66322327 C118.05493958 112.19100403 118.05493958 112.19100403 118.91563416 113.74964905 C119.97104872 115.65609178 121.03179761 117.55959457 122.09873962 119.45960999 C122.56256042 120.29766174 123.02638123 121.1357135 123.5042572 121.99916077 C123.91152039 122.72691711 124.31878357 123.45467346 124.73838806 124.20448303 C125.60191345 126.12025452 125.60191345 126.12025452 125.60191345 129.12025452 C106.79191345 129.12025452 87.98191345 129.12025452 68.60191345 129.12025452 C59.60191345 109.12025452 59.60191345 109.12025452 59.60191345 107.12025452 C38.48191345 107.12025452 17.36191345 107.12025452 -4.39808655 107.12025452 C-5.05808655 109.10025452 -5.71808655 111.08025452 -6.39808655 113.12025452 C-9.03808655 118.40025452 -11.67808655 123.68025452 -14.39808655 129.12025452 C-33.20808655 129.12025452 -52.01808655 129.12025452 -71.39808655 129.12025452 C-69.97460996 125.56156305 -68.53633762 122.31561741 -66.78089905 118.93666077 C-66.26301819 117.93884583 -65.74513733 116.94103088 -65.21156311 115.91297913 C-64.65436584 114.847005 -64.09716858 113.78103088 -63.52308655 112.68275452 C-62.94010803 111.56457336 -62.35712952 110.44639221 -61.75648499 109.29432678 C-57.65456278 101.45414765 -53.45745038 93.67123151 -49.19691467 85.91639709 C-44.73145723 77.77329174 -40.37174579 69.57608222 -36.02308655 61.37025452 C-26.65750964 43.70504832 -17.27213002 26.04975325 -7.58558655 8.55775452 C-7.17058899 7.80703674 -6.75559143 7.05631897 -6.32801819 6.28285217 C-2.9102212 0.14593604 -2.9102212 0.14593604 0 0 Z M26.60191345 40.12025452 C24.32082701 44.94291715 22.04223114 49.76674523 19.76597595 54.59169006 C18.99062534 56.23426904 18.21458476 57.87652252 17.43785095 59.51844788 C16.32407186 61.87315303 15.21274715 64.22900248 14.10191345 66.58509827 C13.75193298 67.32364548 13.40195251 68.06219269 13.04136658 68.82312012 C11.34991248 71.84998139 11.34991248 71.84998139 10.60191345 75.12025452 C21.49191345 75.12025452 32.38191345 75.12025452 43.60191345 75.12025452 C41.76175353 69.59977476 40.10311322 64.73034865 37.6839447 59.55384827 C36.88633728 57.83778381 36.88633728 57.83778381 36.07261658 56.08705139 C35.52540955 54.92238342 34.97820251 53.75771545 34.41441345 52.55775452 C33.84951353 51.34637423 33.28505716 50.134787 32.72105408 48.92298889 C31.35233947 45.98668661 29.97920446 43.0525412 28.60191345 40.12025452 C27.94191345 40.12025452 27.28191345 40.12025452 26.60191345 40.12025452 Z " fill="#03423C" transform="translate(382.39808654785156,266.87974548339844)"/>
<path d="M0 0 C48.84 0 97.68 0 148 0 C148 13.53 148 27.06 148 41 C128.53 41 109.06 41 89 41 C89 70.04 89 99.08 89 129 C72.17 129 55.34 129 38 129 C38 99.96 38 70.92 38 41 C32.06 41 26.12 41 20 41 C20.061875 39.5975 20.12375 38.195 20.1875 36.75 C20.1446575 26.65344995 17.61506189 17.73808403 11 10 C9.29998236 8.35517774 7.57398609 6.84304547 5.7109375 5.38671875 C3.67797064 3.73899447 1.85039855 1.85039855 0 0 Z " fill="#03423B" transform="translate(856,267)"/>
<path d="M0 0 C16.5 0 33 0 50 0 C50 42.24 50 84.48 50 128 C33.5 128 17 128 0 128 C0 85.76 0 43.52 0 0 Z " fill="#03413C" transform="translate(654,267)"/>
<path d="M0 0 C0.66 0.33 1.32 0.66 2 1 C-1.96 4.465 -1.96 4.465 -6 8 C-6.66 7.34 -7.32 6.68 -8 6 C-5.36 4.02 -2.72 2.04 0 0 Z M-10 7 C-9.34 7.33 -8.68 7.66 -8 8 C-8.66 8.66 -9.32 9.32 -10 10 C-10.99 9.67 -11.98 9.34 -13 9 C-12.01 8.34 -11.02 7.68 -10 7 Z " fill="#0D3E34" transform="translate(407,215)"/>
<path d="M0 0 C1.98 0 3.96 0 6 0 C6 0.33 6 0.66 6 1 C4.02 1 2.04 1 0 1 C0 0.67 0 0.34 0 0 Z " fill="#153B2F" transform="translate(654,259)"/>
</svg>
